<svg width="58" height="58" viewBox="0 0 58 58" fill="none" xmlns="http://www.w3.org/2000/svg">
<path d="M21.7022 17.0526C22.527 16.5487 23.604 16.8089 24.1079 17.6337L29.5813 26.5943L38.5418 21.1209C39.3666 20.6171 40.4437 20.8773 40.9475 21.7021C41.4513 22.5269 41.1911 23.604 40.3663 24.1078L31.4057 29.5812L36.8791 38.5418C37.3829 39.3666 37.1227 40.4436 36.2979 40.9474C35.4731 41.4512 34.3961 41.191 33.8923 40.3662L28.4189 31.4057L19.4583 36.8791C18.6335 37.3829 17.5564 37.1227 17.0526 36.2979C16.5488 35.4731 16.809 34.396 17.6338 33.8922L26.5944 28.4188L21.121 19.4582C20.6172 18.6334 20.8774 17.5564 21.7022 17.0526Z" fill="#E7E7E7"/>
</svg>
